# File created by Blade
# Date/Time:  Wed Jan 21 16:14:13 2015
# Frame Rate: 120.000 fps
#------------------------------------------------------
:FULLY-SPECIFIED
:DEGREES
112
root 18.358556 35.661695 -20.125419 -170.446659 -1.331202 -179.224438
Spine -23.718695 1.362661 0.602447
Head 13.744462 -0.958545 -1.740940
LeftShoulder -4.671131 -58.873340 39.601989
LeftArm 51.109764 -14.241581 -4.582575
LeftForeArm -10.056831 -0.000000 4.017502
LeftHand 0.589289 -0.000000 3.821369
LeftHandThumb1 -26.253704 0.000000 33.147579
RightShoulder -4.476411 16.218668 -35.399582
RightArm 36.892276 48.461521 -7.208916
RightForeArm -37.412157 0.000000 13.299902
RightHand -1.575544 -0.000000 -6.659598
RightHandThumb1 -24.326973 -0.000000 -32.862282
LeftUpLeg -2.078747 8.576052 -0.802400
LeftLeg -4.793109 -0.000000 0.000000
LeftFoot -20.270687 26.067861 -12.525291
LeftToeBase 25.334841 -0.000000 -0.000000
RightUpLeg -3.460874 -4.995835 1.236266
RightLeg -1.789111 -0.000000 0.000000
RightFoot -21.860966 -28.124737 15.743310
RightToeBase 23.290549 -0.000000 -0.000000
113
root 18.357495 35.662510 -20.109032 -170.377289 -1.375082 -179.230648
Spine -23.771501 1.307522 0.610407
Head 13.685372 -0.953282 -1.684658
LeftShoulder -4.551502 -58.963462 39.655795
LeftArm 51.954270 -14.793613 -5.001857
LeftForeArm -10.126647 -0.000000 4.707793
LeftHand 1.038124 -0.000000 4.417839
LeftHandThumb1 -26.253704 0.000000 33.147579
RightShoulder -4.436482 16.194088 -35.442896
RightArm 37.853838 49.060743 -7.079177
RightForeArm -37.677034 -0.000000 13.772636
RightHand -1.847201 0.000000 -8.001354
RightHandThumb1 -24.326973 -0.000000 -32.862282
LeftUpLeg -2.194628 8.572378 -0.821796
LeftLeg -4.775282 -0.000000 0.000000
LeftFoot -20.254330 26.052708 -12.516180
LeftToeBase 25.083619 -0.000000 -0.000000
RightUpLeg -3.554734 -4.996582 1.240872
RightLeg -1.784903 -0.000000 0.000000
RightFoot -21.847617 -28.188778 15.731114
RightToeBase 23.255276 -0.000000 -0.000000
114
root 18.356643 35.663600 -20.090759 -170.280260 -1.395024 -179.239794
Spine -23.842717 1.274117 0.603498
Head 13.655453 -1.007055 -1.636344
LeftShoulder -4.476326 -59.112004 39.768107
LeftArm 52.755687 -15.177666 -5.353313
LeftForeArm -10.004744 -0.000000 5.334761
LeftHand 1.285882 -0.000000 5.180034
LeftHandThumb1 -26.253704 0.000000 33.147579
RightShoulder -4.423899 16.184110 -35.463067
RightArm 38.839412 49.709895 -6.888097
RightForeArm -37.645446 -0.000000 14.322222
RightHand -1.451337 0.000000 -8.495118
RightHandThumb1 -24.326973 -0.000000 -32.862282
LeftUpLeg -2.337953 8.578291 -0.852461
LeftLeg -4.749335 -0.000000 0.000000
LeftFoot -20.241596 26.023001 -12.508037
LeftToeBase 25.316307 -0.000000 -0.000000
RightUpLeg -3.685622 -4.971762 1.240626
RightLeg -1.772770 -0.000000 0.000000
RightFoot -21.851504 -28.231457 15.735975
RightToeBase 23.257631 -0.000000 -0.000000
115
root 18.356287 35.664360 -20.073278 -170.190541 -1.406221 -179.235287
Spine -23.906207 1.245937 0.603499
Head 13.581034 -1.002877 -1.515254
LeftShoulder -4.500892 -59.234129 39.968869
LeftArm 53.508540 -15.545426 -5.810301
LeftForeArm -9.771107 -0.000000 6.156102
LeftHand 1.559038 0.000000 6.031360
LeftHandThumb1 -26.253704 0.000000 33.147579
RightShoulder -4.394771 16.149707 -35.403408
RightArm 39.807556 50.358290 -6.754781
RightForeArm -38.038185 -0.000000 14.790537
RightHand -1.369844 -0.000000 -7.470076
RightHandThumb1 -24.326973 -0.000000 -32.862282
LeftUpLeg -2.466097 8.596469 -0.865397
LeftLeg -4.740157 -0.000000 0.000000
LeftFoot -20.217196 25.998790 -12.481227
LeftToeBase 25.121959 -0.000000 -0.000000
RightUpLeg -3.811243 -4.926308 1.251314
RightLeg -1.752513 -0.000000 0.000000
RightFoot -21.843547 -28.275199 15.806203
RightToeBase 23.061053 -0.000000 -0.000000
116
root 18.356249 35.665451 -20.054830 -170.088873 -1.454899 -179.237113
Spine -23.984827 1.186435 0.622794
Head 13.498078 -1.038275 -1.446999
LeftShoulder -4.554682 -59.443359 40.165357
LeftArm 54.211719 -15.766350 -6.225037
LeftForeArm -9.219556 -0.000000 6.947079
LeftHand 1.399584 0.000000 5.536441
LeftHandThumb1 -26.253704 0.000000 33.147579
RightShoulder -4.353047 16.154812 -35.468816
RightArm 40.560555 50.775612 -6.680775
RightForeArm -37.839983 -0.000000 15.474130
RightHand -1.089124 0.000000 -10.289883
RightHandThumb1 -24.326973 -0.000000 -32.862282
LeftUpLeg -2.620415 8.588223 -0.884984
LeftLeg -4.715153 -0.000000 0.000000
LeftFoot -20.199923 25.983089 -12.450828
LeftToeBase 25.146918 -0.000000 -0.000000
RightUpLeg -3.944433 -4.955011 1.265224
RightLeg -1.743447 -0.000000 0.000000
RightFoot -21.827931 -28.291530 15.713026
RightToeBase 23.293448 -0.000000 -0.000000
117
root 18.357066 35.666417 -20.034847 -169.990196 -1.499974 -179.233817
Spine -24.055411 1.119314 0.649492
Head 13.423533 -1.077031 -1.369470
LeftShoulder -4.521324 -59.502680 40.255420
LeftArm 54.866964 -16.056387 -6.454120
LeftForeArm -8.921859 -0.000000 7.702368
LeftHand 1.631409 -0.000000 6.047206
LeftHandThumb1 -26.253704 0.000000 33.147579
RightShoulder -4.291871 16.143741 -35.467128
RightArm 41.435654 51.419656 -6.458276
RightForeArm -37.888682 -0.000000 16.073001
RightHand -1.133041 -0.000000 -11.748328
RightHandThumb1 -24.326973 -0.000000 -32.862282
LeftUpLeg -2.754757 8.538607 -0.893149
LeftLeg -4.717307 -0.000000 0.000000
LeftFoot -20.179763 25.965778 -12.449390
LeftToeBase 25.368736 -0.000000 -0.000000
RightUpLeg -4.081713 -4.961189 1.284775
RightLeg -1.717624 -0.000000 0.000000
RightFoot -21.821739 -28.292844 15.783479
RightToeBase 23.150258 -0.000000 -0.000000
118
root 18.358938 35.666955 -20.015985 -169.912047 -1.569561 -179.237774
Spine -24.091352 1.043024 0.668984
Head 13.339517 -1.083635 -1.313986
LeftShoulder -4.414685 -59.667820 40.311339
LeftArm 55.411705 -16.355105 -6.731878
LeftForeArm -8.897958 -0.000000 8.547326
LeftHand 1.882251 -0.000000 7.456264
LeftHandThumb1 -26.253704 0.000000 33.147579
RightShoulder -4.262134 16.119290 -35.485048
RightArm 42.233200 51.988794 -6.266911
RightForeArm -37.869628 -0.000000 16.730255
RightHand -0.999072 -0.000000 -12.779485
RightHandThumb1 -24.326973 -0.000000 -32.862282
LeftUpLeg -2.883177 8.508800 -0.901981
LeftLeg -4.702594 -0.000000 0.000000
LeftFoot -20.137381 25.954412 -12.390766
LeftToeBase 25.170636 -0.000000 -0.000000
RightUpLeg -4.187006 -5.014052 1.300388
RightLeg -1.714934 -0.000000 0.000000
RightFoot -21.811414 -28.333123 15.699101
RightToeBase 23.278901 -0.000000 -0.000000
119
root 18.360722 35.667140 -20.001327 -169.866416 -1.626388 -179.229486
Spine -24.089244 0.966529 0.696789
Head 13.256426 -1.071216 -1.229879
LeftShoulder -4.365544 -59.757144 40.395966
LeftArm 55.996697 -16.706164 -7.031357
LeftForeArm -8.528565 -0.000000 9.270302
LeftHand 2.329374 -0.000000 8.130658
LeftHandThumb1 -26.253704 0.000000 33.147579
RightShoulder -4.208267 16.029908 -35.470533
RightArm 42.942985 52.629441 -6.073592
RightForeArm -38.158493 -0.000000 17.484305
RightHand -1.001121 -0.000000 -13.544035
RightHandThumb1 -24.326973 -0.000000 -32.862282
LeftUpLeg -2.963285 8.489370 -0.898474
LeftLeg -4.697593 -0.000000 0.000000
LeftFoot -20.134652 25.927759 -12.375098
LeftToeBase 25.473015 -0.000000 -0.000000
RightUpLeg -4.249498 -5.055748 1.325399
RightLeg -1.716906 -0.000000 0.000000
RightFoot -21.802777 -28.325404 15.788491
RightToeBase 23.098553 -0.000000 -0.000000
120
root 18.362063 35.666773 -19.985874 -169.798227 -1.670594 -179.223948
Spine -24.112382 0.894693 0.721923
Head 13.179783 -1.089920 -1.153734
LeftShoulder -4.348467 -59.996243 40.593103
LeftArm 56.388685 -16.845910 -7.275529
LeftForeArm -8.118286 0.000000 10.020418
LeftHand 3.134267 -0.000000 9.137034
LeftHandThumb1 -26.253704 0.000000 33.147579
RightShoulder -4.158095 16.070833 -35.492594
RightArm 43.690574 53.143664 -5.783948
RightForeArm -38.344339 -0.000000 18.164358
RightHand -0.919158 0.000000 -14.560434
RightHandThumb1 -24.326973 -0.000000 -32.862282
LeftUpLeg -3.061043 8.467737 -0.900467
LeftLeg -4.699889 -0.000000 0.000000
LeftFoot -20.119400 25.911777 -12.335381
LeftToeBase 25.523671 -0.000000 -0.000000
RightUpLeg -4.334980 -5.083025 1.344119
RightLeg -1.721772 -0.000000 0.000000
RightFoot -21.791758 -28.325142 15.767903
RightToeBase 23.139894 -0.000000 -0.000000
121
root 18.364360 35.667478 -19.970106 -169.736617 -1.701873 -179.218022
Spine -24.122554 0.840550 0.746957
Head 13.082599 -1.088649 -1.088254
LeftShoulder -4.388564 -60.107193 40.747677
LeftArm 56.886628 -17.106373 -7.595156
LeftForeArm -7.644150 -0.000000 10.735771
LeftHand 3.189761 -0.000000 9.758391
LeftHandThumb1 -26.253704 0.000000 33.147579
RightShoulder -4.169688 15.997465 -35.507449
RightArm 44.488959 53.713819 -5.417978
RightForeArm -38.354176 -0.000000 18.813807
RightHand -0.756580 -0.000000 -15.577443
RightHandThumb1 -24.326973 -0.000000 -32.862282
LeftUpLeg -3.153322 8.469825 -0.904771
LeftLeg -4.703137 -0.000000 0.000000
LeftFoot -20.098597 25.903576 -12.321799
LeftToeBase 25.533056 -0.000000 -0.000000
RightUpLeg -4.421791 -5.102339 1.363378
RightLeg -1.718534 -0.000000 0.000000
RightFoot -21.756198 -28.347125 15.668382
RightToeBase 23.279850 -0.000000 -0.000000
